<svg width="489" height="524" viewBox="0 0 489 524" fill="none" xmlns="http://www.w3.org/2000/svg">
<path stroke="white"  fill-rule="evenodd" clip-rule="evenodd" d="M320.356 388.531C317.179 390.331 313.19 389.018 311.536 385.761C309.883 382.505 311.192 378.539 314.361 376.724C330.053 367.738 344.151 355.366 355.499 339.766C366.848 324.166 374.279 306.944 377.997 289.248C378.748 285.673 382.118 283.207 385.726 283.778C389.333 284.349 391.81 287.739 391.076 291.317C387.028 311.029 378.804 330.214 366.195 347.547C353.586 364.88 337.865 378.611 320.356 388.531ZM375.115 190.15C376.915 193.327 375.602 197.316 372.346 198.97C369.089 200.623 365.124 199.314 363.309 196.145C354.323 180.453 341.951 166.355 326.351 155.007C310.75 143.658 293.528 136.227 275.832 132.509C272.258 131.758 269.792 128.388 270.362 124.78C270.933 121.173 274.324 118.695 277.901 119.43C297.613 123.478 316.798 131.702 334.131 144.311C351.464 156.92 365.195 172.641 375.115 190.15ZM185.554 138.16C183.901 134.903 179.912 133.59 176.734 135.391C159.226 145.311 143.505 159.042 130.896 176.375C118.286 193.708 110.062 212.893 106.015 232.604C105.28 236.182 107.757 239.573 111.365 240.144C114.972 240.714 118.342 238.248 119.093 234.674C122.811 216.978 130.242 199.756 141.591 184.155C152.94 168.555 167.037 156.183 182.729 147.197C185.899 145.382 187.208 141.417 185.554 138.16ZM121.975 333.772C120.175 330.594 121.488 326.605 124.744 324.952C128.001 323.298 131.967 324.607 133.782 327.777C142.767 343.469 155.14 357.566 170.74 368.915C186.34 380.264 203.562 387.694 221.258 391.413C224.832 392.164 227.299 395.534 226.728 399.141C226.157 402.749 222.767 405.226 219.189 404.491C199.477 400.444 180.292 392.22 162.959 379.61C145.626 367.001 131.895 351.28 121.975 333.772Z" fill="#BCBCBC"/>
<path  d="M259.942 408.932C221.587 441.648 183.489 462.556 151.792 468.282C120.096 474.008 96.6491 464.219 85.2331 440.494C73.8171 416.769 75.0974 380.491 88.8677 337.511C102.638 294.531 128.095 247.354 161.134 203.589C194.173 159.824 232.867 122.022 270.976 96.2802C309.085 70.5384 344.387 58.3572 371.189 61.7011C397.991 65.045 414.73 83.719 418.707 114.712C422.684 145.704 413.667 187.208 393.109 232.531" stroke="white" stroke-width="19.8391" stroke-linecap="round"/>
</svg>
