<svg width="206" height="28" viewBox="0 0 206 28" fill="none" xmlns="http://www.w3.org/2000/svg">
<path d="M76.9774 14.8453L76.9554 5.14277L71.7852 13.1732H70.4816L65.3113 5.26928V14.8453H62.5447V0.209015H64.9483L71.1746 9.88951L77.3404 0.209015H79.7221L79.7661 14.8453H76.9774Z" fill="black"/>
<path d="M95.2823 11.4571H87.4114L85.8603 14.8453H82.8462L89.9306 0.209015H92.8072L99.9136 14.8453H96.8554L95.2823 11.4571ZM94.3143 9.32298L91.3441 2.92615L88.4015 9.32298H94.3143Z" fill="black"/>
<path d="M116.173 5.41778C116.173 8.64095 113.609 10.6266 109.473 10.6266H105.92V14.8508H102.999V0.209015H109.473C113.609 0.209015 116.173 2.17262 116.173 5.41778ZM113.224 5.41778C113.224 3.57519 111.899 2.51363 109.336 2.51363H105.92V8.32193H109.336C111.899 8.32193 113.224 7.25488 113.224 5.41778Z" fill="black"/>
<path d="M125.413 8.67945H122.492V14.8508H119.616V0.209015H122.492V6.33633H125.507L130.022 0.209015H133.124L127.751 7.29888L133.328 14.8453H130.022L125.413 8.67395V8.67945Z" fill="black"/>
<path d="M146.166 11.4571H138.295L136.744 14.8453H133.729L140.814 0.209015H143.691L150.797 14.8453H147.739L146.166 11.4571ZM145.198 9.32298L142.227 2.92615L139.285 9.32298H145.198Z" fill="black"/>
<path d="M167.435 0.209007V14.8453H164.558V2.50813H158.354L158.217 6.16581C158.013 11.9356 157.095 15.0543 153.695 15.0543C153.2 15.0543 152.705 14.9718 152.1 14.8453L152.304 12.4801C152.529 12.5406 152.733 12.5626 152.98 12.5626C154.889 12.5626 155.478 10.39 155.632 6.27032L155.857 0.203506H167.435V0.209007Z" fill="black"/>
<path d="M172.561 0.209015H175.438V10.6046L183.897 0.209015H186.62V14.8453H183.743V4.47723L175.29 14.8508H172.567V0.209015H172.561Z" fill="black"/>
<path d="M190.531 7.52989C190.531 3.15716 194.128 0 198.963 0C201.526 0 203.732 0.858044 205.189 2.44763L203.303 4.09771C202.158 2.94815 200.739 2.38162 199.1 2.38162C195.839 2.38162 193.479 4.51573 193.479 7.52439C193.479 10.533 195.839 12.6672 199.1 12.6672C200.739 12.6672 202.158 12.1006 203.303 10.9291L205.189 12.6011C203.726 14.1907 201.526 15.0488 198.941 15.0488C194.128 15.0488 190.531 11.8916 190.531 7.51889V7.52989Z" fill="black"/>
<path d="M66.296 22.2597V26.2584H65.878V22.6227H63.9474L63.9034 23.9593C63.8484 25.5598 63.5953 26.2969 62.8693 26.2969C62.7648 26.2969 62.6713 26.2859 62.5503 26.2584L62.5833 25.8789C62.6603 25.8954 62.7098 25.9009 62.7703 25.9009C63.2763 25.9009 63.4743 25.3178 63.5238 23.9703L63.5788 22.2542H66.296V22.2597Z" fill="black"/>
<path d="M67.9294 22.2597H68.3475V25.5763L70.9106 22.2597H71.2956V26.2584H70.8776V22.9472L68.3145 26.2584H67.9294V22.2597Z" fill="black"/>
<path d="M75.5088 25.1418C75.5088 25.8679 74.7663 26.2969 73.9303 26.2969C73.4242 26.2969 72.8742 26.1374 72.4507 25.7799L72.6047 25.4774C72.9622 25.7854 73.4462 25.9339 73.8863 25.9339C74.5243 25.9339 75.0853 25.6259 75.0853 25.0813C75.0853 24.6138 74.6948 24.3553 74.0403 24.3553H73.1822V24.0143H74.0183C74.5848 24.0143 74.9148 23.7613 74.9148 23.3322C74.9148 22.8482 74.4363 22.5732 73.8532 22.5732C73.4847 22.5732 73.0832 22.6777 72.7202 22.9032L72.5772 22.5567C72.9897 22.3092 73.4407 22.2047 73.8643 22.2047C74.6618 22.2047 75.3383 22.6062 75.3383 23.2882C75.3383 23.7173 75.0853 24.0363 74.6618 24.1683C75.1898 24.3003 75.5088 24.6523 75.5088 25.1418Z" fill="black"/>
<path d="M76.8455 22.2597H77.2635V25.5763L79.8266 22.2597H80.2116V26.2584H79.7936V22.9472L77.2305 26.2584H76.8455V22.2597Z" fill="black"/>
<path d="M85.1838 22.2597V26.2584H84.7658V24.4103H82.2631V26.2584H81.8396V22.2597H82.2631V24.0418H84.7658V22.2597H85.1838Z" fill="black"/>
<path d="M89.364 22.6227H87.2299V26.2584H86.8174V22.2597H89.3585V22.6282L89.364 22.6227Z" fill="black"/>
<path d="M96.311 22.2597V26.2584H95.904V23.0572L94.3309 25.7469H94.1329L92.5599 23.0737V26.2584H92.1528V22.2597H92.4994L94.2374 25.2243L95.959 22.2597H96.3055H96.311Z" fill="black"/>
<path d="M100.777 25.8954V26.2639H97.9501V22.2652H100.695V22.6337H98.3736V24.0583H100.442V24.4158H98.3736V25.9009H100.783L100.777 25.8954Z" fill="black"/>
<path d="M105.672 25.8954V27.1604H105.276V26.2639H101.784V27.1604H101.382V25.8954H101.586C102.158 25.8624 102.284 24.8338 102.323 23.5577L102.367 22.2597H105.067V25.8954H105.667H105.672ZM102.191 25.8954H104.655V22.6282H102.741L102.708 23.6017C102.675 24.6413 102.576 25.6093 102.191 25.9009V25.8954Z" fill="black"/>
<path d="M106.822 22.2597H107.24V25.5763L109.803 22.2597H110.188V26.2584H109.77V22.9472L107.207 26.2584H106.822V22.2597Z" fill="black"/>
<path d="M115.705 25.8954V27.1989H115.309V26.2639H111.816V22.2652H112.234V25.9009H114.654V22.2652H115.072V25.9009H115.705V25.8954Z" fill="black"/>
<path d="M116.833 22.2597H117.251V25.5763L119.814 22.2597H120.199V26.2584H119.781V22.9472L117.218 26.2584H116.833V22.2597Z" fill="black"/>
<path d="M125.171 22.2597V26.2584H124.753V24.4103H122.25V26.2584H121.827V22.2597H122.25V24.0418H124.753V22.2597H125.171Z" fill="black"/>
<path d="M126.464 24.2618C126.464 23.0903 127.355 22.2267 128.559 22.2267C129.142 22.2267 129.67 22.4192 130.022 22.8097L129.753 23.0793C129.428 22.7492 129.027 22.6062 128.57 22.6062C127.602 22.6062 126.876 23.3158 126.876 24.2618C126.876 25.2079 127.602 25.9174 128.57 25.9174C129.027 25.9174 129.428 25.7744 129.753 25.4389L130.022 25.7084C129.67 26.0989 129.142 26.2969 128.554 26.2969C127.355 26.2969 126.464 25.4334 126.464 24.2618Z" fill="black"/>
<path d="M132.508 24.4268H131.595V26.2639H131.183V22.2652H131.595V24.0583H132.508L133.861 22.2652H134.318L132.833 24.2068L134.406 26.2639H133.922L132.508 24.4268Z" fill="black"/>
<path d="M134.989 24.2618C134.989 23.0958 135.88 22.2267 137.09 22.2267C138.3 22.2267 139.186 23.0903 139.186 24.2618C139.186 25.4334 138.289 26.2969 137.09 26.2969C135.891 26.2969 134.989 25.4279 134.989 24.2618ZM138.768 24.2618C138.768 23.3048 138.053 22.6062 137.096 22.6062C136.139 22.6062 135.407 23.3103 135.407 24.2618C135.407 25.2134 136.128 25.9174 137.096 25.9174C138.064 25.9174 138.768 25.2134 138.768 24.2618Z" fill="black"/>
<path d="M143.03 22.6227H140.896V26.2584H140.484V22.2597H143.025V22.6282L143.03 22.6227Z" fill="black"/>
<path d="M143.151 24.2618C143.151 23.0958 144.042 22.2267 145.252 22.2267C146.463 22.2267 147.348 23.0903 147.348 24.2618C147.348 25.4334 146.452 26.2969 145.252 26.2969C144.053 26.2969 143.151 25.4279 143.151 24.2618ZM146.93 24.2618C146.93 23.3048 146.215 22.6062 145.258 22.6062C144.301 22.6062 143.569 23.3103 143.569 24.2618C143.569 25.2134 144.29 25.9174 145.258 25.9174C146.226 25.9174 146.93 25.2134 146.93 24.2618Z" fill="black"/>
<path d="M150.087 24.2618C150.087 23.0958 150.978 22.2267 152.188 22.2267C153.398 22.2267 154.284 23.0903 154.284 24.2618C154.284 25.4334 153.387 26.2969 152.188 26.2969C150.989 26.2969 150.087 25.4279 150.087 24.2618ZM153.866 24.2618C153.866 23.3048 153.151 22.6062 152.194 22.6062C151.237 22.6062 150.505 23.3103 150.505 24.2618C150.505 25.2134 151.226 25.9174 152.194 25.9174C153.162 25.9174 153.866 25.2134 153.866 24.2618Z" fill="black"/>
<path d="M155.582 22.2597H158.508V22.6172H156V23.9263H157.309C158.25 23.9263 158.756 24.3223 158.756 25.0648C158.756 25.8074 158.206 26.2584 157.221 26.2584H155.588V22.2597H155.582ZM157.21 25.9229C157.947 25.9229 158.332 25.6368 158.332 25.0813C158.332 24.5258 157.958 24.2618 157.21 24.2618H156V25.9174H157.21V25.9229Z" fill="black"/>
<path d="M159.674 24.2618C159.674 23.0958 160.565 22.2267 161.775 22.2267C162.985 22.2267 163.871 23.0903 163.871 24.2618C163.871 25.4334 162.974 26.2969 161.775 26.2969C160.576 26.2969 159.674 25.4279 159.674 24.2618ZM163.453 24.2618C163.453 23.3048 162.738 22.6062 161.775 22.6062C160.813 22.6062 160.087 23.3103 160.087 24.2618C160.087 25.2134 160.807 25.9174 161.775 25.9174C162.743 25.9174 163.453 25.2134 163.453 24.2618Z" fill="black"/>
<path d="M168.31 23.6292C168.31 24.4818 167.694 24.9933 166.676 24.9933H165.604V26.2584H165.18V22.2597H166.676C167.694 22.2597 168.31 22.7767 168.31 23.6292ZM167.886 23.6292C167.886 22.9912 167.463 22.6227 166.665 22.6227H165.604V24.6248H166.665C167.463 24.6248 167.886 24.2563 167.886 23.6292Z" fill="black"/>
<path d="M172.517 22.2597L170.697 25.6258C170.433 26.1154 170.07 26.3354 169.674 26.3354C169.514 26.3354 169.349 26.2969 169.184 26.2254L169.305 25.8844C169.437 25.9339 169.564 25.9669 169.685 25.9669C169.927 25.9669 170.147 25.8459 170.328 25.5378L170.444 25.3453L168.821 22.2652H169.272L170.669 24.9768L172.099 22.2652H172.523L172.517 22.2597Z" fill="black"/>
<path d="M177.099 25.8954V27.1604H176.703V26.2639H173.21V27.1604H172.809V25.8954H173.012C173.584 25.8624 173.711 24.8338 173.75 23.5577L173.794 22.2597H176.494V25.8954H177.094H177.099ZM173.618 25.8954H176.082V22.6282H174.168L174.135 23.6017C174.102 24.6413 174.003 25.6093 173.618 25.9009V25.8954Z" fill="black"/>
<path d="M177.897 24.2618C177.897 23.0958 178.788 22.2267 179.998 22.2267C181.208 22.2267 182.093 23.0903 182.093 24.2618C182.093 25.4334 181.197 26.2969 179.998 26.2969C178.799 26.2969 177.897 25.4279 177.897 24.2618ZM181.675 24.2618C181.675 23.3048 180.96 22.6062 180.003 22.6062C179.046 22.6062 178.315 23.3103 178.315 24.2618C178.315 25.2134 179.035 25.9174 180.003 25.9174C180.971 25.9174 181.675 25.2134 181.675 24.2618Z" fill="black"/>
<path d="M186.62 25.1803C186.62 25.8679 186.136 26.2584 185.168 26.2584H183.397V22.2597H185.058C185.9 22.2597 186.417 22.6117 186.417 23.2827C186.417 23.7448 186.164 24.0473 185.768 24.1958C186.329 24.3113 186.62 24.6468 186.62 25.1803ZM183.815 24.0693H185.036C185.647 24.0693 185.999 23.8163 185.999 23.3322C185.999 22.8482 185.652 22.5952 185.036 22.5952H183.815V24.0693ZM186.202 25.1473C186.202 24.6248 185.845 24.3938 185.168 24.3938H183.815V25.9174H185.168C185.845 25.9174 186.202 25.6698 186.202 25.1473Z" fill="black"/>
<path d="M190.525 25.1913H188.298L187.819 26.2584H187.379L189.211 22.2597H189.629L191.46 26.2584H191.015L190.536 25.1913H190.525ZM190.371 24.8503L189.409 22.6997L188.446 24.8503H190.366H190.371Z" fill="black"/>
<path d="M195.844 22.2597V26.2584H195.426V24.4103H192.924V26.2584H192.5V22.2597H192.924V24.0418H195.426V22.2597H195.844Z" fill="black"/>
<path d="M197.478 22.2597H197.896V25.5763L200.459 22.2597H200.844V26.2584H200.426V22.9472L197.863 26.2584H197.478V22.2597Z" fill="black"/>
<path d="M205.31 22.2597V26.2584H204.892V25.0483H203.698C203.616 25.0483 203.544 25.0428 203.467 25.0373L202.626 26.2584H202.175L203.082 24.9603C202.499 24.7843 202.175 24.3278 202.175 23.6732C202.175 22.7657 202.796 22.2542 203.754 22.2542H205.31V22.2597ZM203.731 24.6908H204.892V22.6282H203.77C203.027 22.6282 202.598 22.9857 202.598 23.6677C202.598 24.3498 202.989 24.6908 203.731 24.6908Z" fill="black"/>
<path d="M10.4956 26.3354C8.83452 26.3354 7.21743 25.4773 6.31539 23.9372L0.727099 14.3667C-0.62047 12.0621 0.16057 9.10297 2.46519 7.7554C4.76981 6.40783 7.73446 7.18337 9.07653 9.49349L14.6648 19.064C16.0124 21.3686 15.2368 24.3278 12.9267 25.6753C12.1622 26.1208 11.3206 26.3354 10.4901 26.3354H10.4956Z" fill="#4B4BA6"/>
<path d="M23.5368 26.3353C22.7063 26.3353 21.8702 26.1208 21.1002 25.6753C18.7956 24.3277 18.02 21.3686 19.3621 19.064L29.0481 2.49161C30.3957 0.186995 33.3548 -0.588545 35.6594 0.753524C37.9641 2.10109 38.7396 5.06025 37.3975 7.36486L27.717 23.9372C26.8205 25.4773 25.1979 26.3353 23.5368 26.3353Z" fill="#66CBF6"/>
<path d="M10.4846 26.3353C9.65403 26.3353 8.81799 26.1208 8.04795 25.6753C5.74333 24.3277 4.96779 21.3686 6.30986 19.064L15.9904 2.49161C17.3379 0.186995 20.2971 -0.588545 22.6017 0.753524C24.9063 2.10109 25.6819 5.06025 24.3398 7.36486L14.6593 23.9372C13.7627 25.4773 12.1402 26.3353 10.4791 26.3353H10.4846Z" fill="#776DE8"/>
<path d="M36.5944 26.3353C35.7639 26.3353 34.9279 26.1208 34.1578 25.6753C31.8532 24.3277 31.0777 21.3686 32.4197 19.064L42.1057 2.49161C43.4533 0.186995 46.4124 -0.588545 48.7171 0.753524C51.0217 2.10109 51.7972 5.06025 50.4551 7.36486L40.7747 23.9372C39.8781 25.4773 38.2555 26.3353 36.5944 26.3353Z" fill="#B0DFF0"/>
</svg>
