<svg width="180" height="57" viewBox="0 0 180 57" fill="none" xmlns="http://www.w3.org/2000/svg">
<path d="M28.5 56.9996C22.863 56.9996 17.3527 55.3282 12.6658 52.1967C7.97889 49.0651 4.32597 44.6142 2.16901 39.4067C0.012047 34.1993 -0.552082 28.4692 0.547965 22.9411C1.64801 17.4131 4.36283 12.3353 8.34908 8.35011C12.3353 4.36488 17.414 1.65113 22.9427 0.552069C28.4715 -0.546991 34.202 0.0180027 39.4096 2.17559C44.6173 4.33318 49.068 7.98646 52.1991 12.6734C55.3302 17.3604 57.0009 22.8705 57 28.5069C56.9916 36.0618 53.986 43.3049 48.643 48.6466C43.2999 53.9883 36.0557 56.9924 28.5 56.9996ZM28.5 0.72899C23.0064 0.72899 17.6362 2.35787 13.0685 5.40964C8.50075 8.46142 4.94063 12.799 2.83833 17.8739C0.736032 22.9489 0.185975 28.5332 1.25772 33.9207C2.32946 39.3082 4.97487 44.2569 8.85941 48.1411C12.744 52.0252 17.6932 54.6704 23.0812 55.742C28.4692 56.8137 34.054 56.2637 39.1294 54.1616C44.2048 52.0595 48.5428 48.4997 51.5949 43.9324C54.647 39.3651 56.276 33.9954 56.276 28.5023C56.2676 21.139 53.3385 14.0796 48.1313 8.87293C42.9241 3.66625 35.8641 0.737425 28.5 0.72899Z" fill="#39373A"/>
<path d="M36.9558 49.2734C36.9089 49.2732 36.8625 49.2639 36.8192 49.2461L7.9549 37.2899C7.87083 37.2527 7.80393 37.1851 7.76762 37.1007C7.73131 37.0163 7.72827 36.9212 7.75911 36.8346L19.7164 7.9731C19.7536 7.88914 19.8214 7.82256 19.9061 7.78701C19.9908 7.75146 20.0858 7.74962 20.1718 7.78187L49.0361 19.7199C49.12 19.757 49.1866 19.8249 49.2222 19.9095C49.2577 19.9942 49.2596 20.0892 49.2273 20.1752L37.2882 49.0504C37.2504 49.1383 37.1803 49.2084 37.0924 49.2461C37.049 49.2639 37.0026 49.2732 36.9558 49.2734ZM8.56051 36.7663L36.7418 48.4448L48.4441 20.248L20.2401 8.56499L8.56051 36.7663Z" fill="#39373A"/>
<path d="M20.0488 49.2734C20.0019 49.2736 19.9555 49.2643 19.9122 49.2461C19.8683 49.228 19.8284 49.2014 19.7948 49.1678C19.7611 49.1342 19.7345 49.0943 19.7164 49.0504L7.75911 20.1888C7.72827 20.1022 7.73131 20.0072 7.76762 19.9227C7.80393 19.8383 7.87083 19.7707 7.9549 19.7335L36.8192 7.78187C36.9051 7.74962 37.0002 7.75146 37.0849 7.78701C37.1695 7.82256 37.2374 7.88914 37.2745 7.9731L49.2273 36.8346C49.2596 36.9206 49.2577 37.0156 49.2222 37.1003C49.1866 37.1849 49.12 37.2528 49.0361 37.2899L20.1718 49.2461C20.1327 49.2623 20.0911 49.2715 20.0488 49.2734ZM8.56051 20.248L20.2401 48.4448L48.4441 36.7663L36.7418 8.56499L8.56051 20.248Z" fill="#39373A"/>
<path d="M48.9131 37.322C48.8437 37.3215 48.7759 37.3009 48.718 37.2628C48.66 37.2246 48.6143 37.1706 48.5864 37.107C48.5585 37.0435 48.5495 36.9733 48.5606 36.9048C48.5717 36.8363 48.6024 36.7725 48.649 36.721L56.153 28.5256L48.649 20.3302C48.6088 20.2897 48.5797 20.2395 48.5646 20.1844C48.5494 20.1294 48.5487 20.0714 48.5625 20.016C48.5737 19.9602 48.5981 19.9079 48.6338 19.8636C48.6695 19.8192 48.7153 19.784 48.7674 19.7611L54.3225 17.3525C54.408 17.3211 54.5022 17.3228 54.5865 17.3573C54.6708 17.3919 54.7391 17.4568 54.7779 17.5392C54.8116 17.6245 54.811 17.7195 54.7762 17.8044C54.7414 17.8893 54.6751 17.9574 54.5912 17.9945L49.4959 20.2073L56.8861 28.2888C56.948 28.354 56.9824 28.4404 56.9824 28.5302C56.9824 28.62 56.948 28.7063 56.8861 28.7715L49.1453 37.2218C49.0823 37.2819 49 37.3174 48.9131 37.322Z" fill="#39373A"/>
<path d="M28.5 56.9996C28.4112 56.9993 28.3256 56.9672 28.2587 56.9087L19.8075 49.1686C19.7726 49.1371 19.7442 49.099 19.7241 49.0564C19.704 49.0139 19.6925 48.9677 19.6904 48.9207C19.6883 48.8737 19.6955 48.8267 19.7117 48.7825C19.7279 48.7383 19.7528 48.6978 19.7848 48.6633C19.8491 48.5937 19.9382 48.5523 20.0328 48.548C20.1274 48.5437 20.2199 48.577 20.2902 48.6405L28.4864 56.1484L36.6826 48.6405C36.7245 48.6024 36.7747 48.5746 36.8293 48.5596C36.8839 48.5446 36.9413 48.5427 36.9968 48.554C37.0526 48.5652 37.1049 48.5897 37.1493 48.6253C37.1937 48.661 37.2288 48.7068 37.2518 48.7589L39.7289 54.2817C39.7546 54.3251 39.7709 54.3735 39.7767 54.4237C39.7825 54.4739 39.7776 54.5247 39.7625 54.5729C39.7473 54.621 39.7222 54.6655 39.6887 54.7033C39.6552 54.7411 39.6142 54.7715 39.5682 54.7924C39.5222 54.8133 39.4723 54.8243 39.4218 54.8246C39.3713 54.825 39.3213 54.8147 39.275 54.7944C39.2288 54.7741 39.1873 54.7444 39.1533 54.707C39.1193 54.6697 39.0935 54.6256 39.0777 54.5776L36.801 49.5056L28.746 56.8996C28.6786 56.9613 28.5913 56.9967 28.5 56.9996Z" fill="#39373A"/>
<path d="M36.9558 8.45583C36.9089 8.4556 36.8625 8.44632 36.8192 8.42851C36.7336 8.3931 36.6653 8.3257 36.6287 8.24066C36.5921 8.15561 36.5902 8.05964 36.6234 7.97321L38.7544 2.71904C38.7907 2.63425 38.8582 2.56665 38.9429 2.53022C39.0277 2.49378 39.1232 2.49129 39.2097 2.52326C39.2953 2.55866 39.3636 2.62606 39.4002 2.71111C39.4368 2.79616 39.4387 2.89212 39.4055 2.97856L37.2745 8.23273C37.2488 8.29689 37.205 8.35218 37.1484 8.3918C37.0918 8.43143 37.0248 8.45368 36.9558 8.45583Z" fill="#39373A"/>
<path d="M2.51352 39.6664C2.44238 39.6658 2.37298 39.6443 2.31391 39.6046C2.25484 39.565 2.20868 39.5089 2.18112 39.4433C2.14886 39.3574 2.15069 39.2623 2.18625 39.1777C2.2218 39.093 2.28839 39.0252 2.37236 38.988L7.48587 36.839L0.100191 28.762C0.0383772 28.6968 0.00391957 28.6105 0.00391957 28.5207C0.00391957 28.4309 0.0383772 28.3445 0.100191 28.2794L7.84104 19.8244C7.90532 19.7548 7.99445 19.7134 8.08908 19.7092C8.18371 19.7049 8.2762 19.7381 8.34647 19.8016C8.37993 19.8347 8.40649 19.874 8.42462 19.9174C8.44275 19.9608 8.45208 20.0073 8.45208 20.0543C8.45208 20.1014 8.44275 20.1479 8.42462 20.1913C8.40649 20.2347 8.37993 20.274 8.34647 20.307L0.837846 28.5024L8.34647 36.6979C8.38632 36.7396 8.4151 36.7906 8.43021 36.8462C8.44532 36.9019 8.44628 36.9604 8.43299 37.0166C8.42096 37.0727 8.39566 37.1251 8.35922 37.1695C8.32278 37.2138 8.27626 37.2488 8.22353 37.2715L2.64101 39.6163C2.60294 39.6426 2.5593 39.6598 2.51352 39.6664Z" fill="#39373A"/>
<path d="M36.9558 49.2734C36.8604 49.2734 36.7687 49.2352 36.7012 49.1678C36.6338 49.1003 36.5959 49.0088 36.5959 48.9134C36.5959 48.818 36.6338 48.7266 36.7012 48.6591C36.7687 48.5916 36.8602 48.5537 36.9556 48.5537L48.0706 48.0575L48.5669 36.9436C48.5694 36.8856 48.5861 36.8292 48.6155 36.7792C48.6448 36.7292 48.686 36.6872 48.7354 36.6567C48.7836 36.6257 48.8387 36.607 48.8959 36.6022C48.953 36.5975 49.0105 36.6068 49.0632 36.6294L54.6503 38.9606C54.7292 39.0029 54.7896 39.0731 54.8195 39.1575C54.8494 39.242 54.8467 39.3345 54.812 39.4171C54.7773 39.4997 54.713 39.5663 54.6317 39.604C54.5504 39.6416 54.458 39.6476 54.3725 39.6207L49.259 37.4854L48.7718 48.4126C48.7674 48.5017 48.73 48.5861 48.6669 48.6492C48.6038 48.7123 48.5194 48.7497 48.4303 48.7541L36.9875 49.2686L36.9558 49.2734Z" fill="#39373A"/>
<path d="M17.6854 54.8466C17.6386 54.8464 17.5922 54.8371 17.5488 54.8193C17.4649 54.7821 17.3983 54.7143 17.3627 54.6296C17.3272 54.545 17.3253 54.4499 17.3576 54.364L19.5159 49.2646L8.58767 48.7729C8.49852 48.7685 8.4142 48.7311 8.35108 48.668C8.28797 48.6049 8.25057 48.5206 8.24616 48.4314L7.73618 36.9897C7.72875 36.9399 7.73187 36.8891 7.74534 36.8405C7.7588 36.792 7.78231 36.7468 7.81434 36.708C7.84637 36.6691 7.8862 36.6374 7.93127 36.6149C7.97634 36.5924 8.02562 36.5796 8.07594 36.5773C8.12626 36.5751 8.1765 36.5835 8.22339 36.6019C8.27027 36.6203 8.31278 36.6483 8.34814 36.6842C8.38351 36.72 8.41094 36.7629 8.42867 36.8101C8.4464 36.8572 8.45403 36.9076 8.45106 36.9578L8.96561 48.0581L20.0806 48.5544C20.1386 48.557 20.1952 48.5737 20.2454 48.603C20.2955 48.6323 20.3379 48.6733 20.3688 48.7225C20.3997 48.7717 20.4181 48.8277 20.4227 48.8857C20.4272 48.9436 20.4176 49.0017 20.3947 49.0552L18.0179 54.6235C17.9908 54.6894 17.9447 54.7458 17.8856 54.7856C17.8264 54.8253 17.7567 54.8465 17.6854 54.8466Z" fill="#39373A"/>
<path d="M8.09152 20.412C8.04465 20.4117 7.99826 20.4024 7.95491 20.3846L2.19481 17.9989C2.10926 17.9635 2.04092 17.8961 2.00434 17.811C1.96777 17.726 1.96586 17.63 1.99901 17.5436C2.0362 17.4595 2.10379 17.3926 2.18824 17.3563C2.27269 17.32 2.36775 17.317 2.45435 17.3478L7.74546 19.5423L8.23267 8.61512C8.23717 8.52523 8.27521 8.44029 8.33927 8.37707C8.40334 8.31385 8.48878 8.27695 8.57873 8.27364L19.507 7.78191L17.3714 2.66889C17.3478 2.62475 17.3336 2.57617 17.3298 2.52625C17.326 2.47632 17.3327 2.42615 17.3494 2.37896C17.3662 2.33176 17.3925 2.28857 17.4269 2.25216C17.4613 2.21575 17.5029 2.18691 17.549 2.1675C17.5952 2.14808 17.6449 2.13852 17.695 2.13941C17.745 2.14031 17.7943 2.15164 17.8398 2.1727C17.8852 2.19375 17.9257 2.22405 17.9588 2.26167C17.9918 2.29929 18.0167 2.34339 18.0317 2.39115L20.363 7.9777C20.3857 8.03119 20.395 8.08936 20.3902 8.14724C20.3855 8.20512 20.3668 8.26099 20.3357 8.31007C20.3042 8.35806 20.2618 8.39793 20.2119 8.42641C20.1621 8.4549 20.1062 8.47119 20.0489 8.47397L8.96578 8.95659L8.46945 20.0705C8.46617 20.1282 8.44917 20.1844 8.41987 20.2343C8.39057 20.2841 8.34981 20.3263 8.30097 20.3573C8.23879 20.3975 8.16538 20.4166 8.09152 20.412Z" fill="#39373A"/>
<path d="M48.9129 20.412C48.8206 20.4121 48.7317 20.3767 48.6648 20.3131C48.5978 20.2496 48.5579 20.1627 48.5532 20.0705L48.0569 8.9566L36.9419 8.45577C36.8579 8.45191 36.7777 8.41982 36.7142 8.36471L28.518 0.856802L20.3218 8.36471C20.2505 8.42433 20.1589 8.45406 20.0662 8.44765C19.9735 8.44123 19.8869 8.39918 19.8245 8.33031C19.7621 8.26144 19.7287 8.17109 19.7315 8.0782C19.7342 7.98531 19.7728 7.89708 19.8392 7.83201L28.2904 0.0918925C28.3577 0.0326683 28.4443 0 28.534 0C28.6236 0 28.7103 0.0326683 28.7776 0.0918925L37.1013 7.72729L48.4166 8.23723C48.5061 8.24061 48.591 8.27767 48.6543 8.34099C48.7176 8.40431 48.7547 8.48922 48.7581 8.5787L49.2681 20.0204C49.2705 20.0674 49.2636 20.1145 49.2477 20.1588C49.2318 20.2031 49.2072 20.2438 49.1755 20.2785C49.1437 20.3133 49.1053 20.3414 49.0626 20.3612C49.0199 20.3809 48.9736 20.392 48.9266 20.3938L48.9129 20.412Z" fill="#39373A"/>
<path d="M35.6591 20.4759V37.6089H33.8698V29.6821H23.152V37.5861H21.3308V20.4759H23.152V28.1113H33.8698V20.4759H35.6591Z" fill="#ED8C00"/>
<path d="M80.3453 13.0681V31.6808H78.4057V23.0893H66.7591V31.6808H64.7922V13.0681H66.7591V21.3865H78.4057V13.0681H80.3453Z" fill="#39373A"/>
<path d="M88.0853 30.8933C87.0175 30.2982 86.1338 29.4209 85.5311 28.3573C84.9214 27.2302 84.6021 25.969 84.6021 24.6876C84.6021 23.4061 84.9214 22.1449 85.5311 21.0178C86.1317 19.955 87.0161 19.0801 88.0853 18.4909C89.2081 17.8988 90.4584 17.5893 91.7277 17.5893C92.9971 17.5893 94.2473 17.8988 95.3701 18.4909C96.4351 19.0795 97.3138 19.955 97.9062 21.0178C98.51 22.1468 98.8259 23.4073 98.8259 24.6876C98.8259 25.9678 98.51 27.2283 97.9062 28.3573C97.3116 29.4209 96.4337 30.2988 95.3701 30.8933C94.251 31.497 92.9993 31.8131 91.7277 31.8131C90.4561 31.8131 89.2045 31.497 88.0853 30.8933ZM94.3958 29.4591C95.1857 29.01 95.8279 28.3408 96.2443 27.5332C96.6815 26.6483 96.9089 25.6746 96.9089 24.6876C96.9089 23.7006 96.6815 22.7268 96.2443 21.8419C95.8279 21.0343 95.1857 20.3651 94.3958 19.916C93.5761 19.4709 92.6582 19.2377 91.7254 19.2377C90.7927 19.2377 89.8748 19.4709 89.0551 19.916C88.2634 20.3672 87.6172 21.0354 87.1929 21.8419C86.7468 22.7242 86.5144 23.6989 86.5144 24.6876C86.5144 25.6762 86.7468 26.651 87.1929 27.5332C87.6172 28.3397 88.2634 29.0079 89.0551 29.4591C89.8748 29.9042 90.7927 30.1374 91.7254 30.1374C92.6582 30.1374 93.5761 29.9042 94.3958 29.4591Z" fill="#39373A"/>
<path d="M106.47 18.3039C107.478 17.7963 108.598 17.5504 109.726 17.5891V19.4103L109.271 19.383C108.63 19.3481 107.99 19.452 107.393 19.6878C106.797 19.9236 106.258 20.2855 105.815 20.7489C104.983 21.6595 104.566 22.9267 104.563 24.5506V31.6761H102.673V17.6938H104.494V20.4256C104.904 19.522 105.598 18.7769 106.47 18.3039Z" fill="#39373A"/>
<path d="M125.493 17.6936L118.5 33.3514C118.096 34.4372 117.418 35.4002 116.533 36.147C115.751 36.7065 114.808 36.9958 113.846 36.9711C113.203 36.9746 112.564 36.8668 111.957 36.6523C111.388 36.4483 110.872 36.1201 110.445 35.6917L111.319 34.2848C111.65 34.6269 112.047 34.8975 112.487 35.08C112.926 35.2624 113.398 35.3529 113.874 35.3456C114.467 35.3641 115.049 35.1776 115.522 34.8175C116.077 34.316 116.509 33.6926 116.783 32.9963L117.398 31.6304L111.146 17.6708H113.118L118.367 29.5815L123.631 17.6982L125.493 17.6936Z" fill="#39373A"/>
<path d="M139.462 19.1091C140.5 20.129 141.019 21.6148 141.019 23.5665V31.6755H139.129V23.7532C139.129 22.3008 138.769 21.1944 138.041 20.4295C137.631 20.033 137.142 19.7266 136.607 19.5298C136.071 19.333 135.501 19.2502 134.931 19.2867C134.275 19.2535 133.618 19.3555 133.002 19.5866C132.387 19.8176 131.825 20.1727 131.353 20.6298C130.478 21.5405 130.037 22.7607 130.037 24.3405V31.68H128.152V17.6932H129.973V20.2702C130.487 19.4226 131.228 18.7363 132.113 18.2896C133.103 17.8026 134.197 17.5621 135.3 17.5884C136.06 17.5524 136.82 17.6683 137.534 17.9294C138.249 18.1905 138.904 18.5916 139.462 19.1091Z" fill="#39373A"/>
<path d="M146.123 14.238C145.996 14.1137 145.895 13.9649 145.827 13.8005C145.759 13.6362 145.725 13.4598 145.727 13.2819C145.726 13.1076 145.761 12.935 145.829 12.7746C145.897 12.6142 145.997 12.4692 146.123 12.3485C146.251 12.2188 146.404 12.1167 146.573 12.0486C146.743 11.9805 146.924 11.9477 147.106 11.9524C147.287 11.9478 147.467 11.9792 147.636 12.0448C147.805 12.1105 147.959 12.2091 148.09 12.3349C148.216 12.4505 148.317 12.5912 148.386 12.748C148.455 12.9048 148.49 13.0742 148.49 13.2455C148.488 13.5187 148.405 13.7851 148.252 14.0117C148.1 14.2383 147.884 14.415 147.632 14.5198C147.379 14.6246 147.102 14.6529 146.833 14.6012C146.565 14.5494 146.318 14.42 146.123 14.2289V14.238ZM146.15 17.6938H148.04V31.6806H146.15V17.6938Z" fill="#39373A"/>
<path d="M163.164 30.1099V31.6807H151.782V30.4286L160.597 19.2874H151.946V17.6938H163.005V18.9414L154.222 30.1099H163.164Z" fill="#39373A"/>
<path d="M178.809 25.2705H167.107C167.137 25.9401 167.3 26.5971 167.588 27.2024C167.876 27.8077 168.282 28.3491 168.783 28.7945C169.841 29.7177 171.209 30.2058 172.612 30.1604C173.433 30.1726 174.248 30.0176 175.007 29.7051C175.73 29.3973 176.374 28.9304 176.892 28.3392L177.957 29.564C177.332 30.3112 176.533 30.8942 175.631 31.2622C174.658 31.6623 173.614 31.862 172.562 31.8496C171.233 31.8787 169.919 31.5651 168.746 30.939C167.661 30.3532 166.762 29.4746 166.151 28.403C165.529 27.2817 165.215 26.0154 165.241 24.7332C165.219 23.4543 165.525 22.1911 166.128 21.0635C166.696 20.0112 167.544 19.1366 168.578 18.5366C169.646 17.9454 170.847 17.6353 172.068 17.6353C173.289 17.6353 174.49 17.9454 175.558 18.5366C176.578 19.1378 177.414 20.007 177.975 21.0498C178.575 22.1837 178.877 23.4509 178.854 24.7332L178.809 25.2705ZM168.664 20.4989C167.739 21.3838 167.183 22.5857 167.107 23.8636H177.028C176.95 22.5863 176.394 21.3851 175.471 20.4989C174.53 19.6627 173.315 19.2008 172.056 19.2008C170.798 19.2008 169.583 19.6627 168.642 20.4989H168.664Z" fill="#39373A"/>
<path d="M67.7153 43.9464C67.9182 44.2122 68.0119 44.5455 67.9772 44.8781C67.9425 45.2108 67.782 45.5175 67.5286 45.7358C67.1321 45.9941 66.662 46.1157 66.19 46.0818H64V41.1372H66.058C66.4937 41.1116 66.9262 41.2265 67.2918 41.465C67.4402 41.5708 67.5596 41.712 67.6391 41.8759C67.7187 42.0398 67.7558 42.221 67.7471 42.403C67.7551 42.6539 67.6798 42.9004 67.5331 43.1041C67.3838 43.3034 67.1773 43.4527 66.9412 43.5321C67.2378 43.5813 67.5099 43.7269 67.7153 43.9464ZM64.5282 43.3773H66.0398C66.35 43.3965 66.6582 43.3151 66.9185 43.1451C67.0154 43.0596 67.093 42.9545 67.1461 42.8368C67.1993 42.719 67.2268 42.5913 67.2268 42.4621C67.2268 42.3329 67.1993 42.2052 67.1461 42.0875C67.093 41.9697 67.0154 41.8646 66.9185 41.7792C66.6582 41.6092 66.35 41.5277 66.0398 41.547H64.5282V43.3773ZM67.4785 44.7113C67.4785 44.0921 67.0505 43.8007 66.1991 43.8007H64.5282V45.6857H66.1991C67.0414 45.6675 67.4694 45.3487 67.4694 44.7113H67.4785Z" fill="#39373A"/>
<path d="M72.4185 44.3785H69.3133C69.3219 44.5575 69.3666 44.7329 69.4449 44.8942C69.5231 45.0554 69.6333 45.199 69.7686 45.3164C70.0501 45.5588 70.4128 45.6857 70.784 45.6716C71.0011 45.6744 71.2165 45.6326 71.4168 45.5486C71.6111 45.4678 71.7841 45.3431 71.9222 45.1844L72.2045 45.5122C72.0365 45.7103 71.8244 45.8662 71.5853 45.9675C71.2926 46.082 70.9789 46.1331 70.6649 46.1174C70.351 46.1017 70.0439 46.0196 69.7641 45.8765C69.4774 45.7187 69.2408 45.4836 69.0811 45.1981C68.9144 44.9008 68.8296 44.5645 68.8353 44.2237C68.8293 43.884 68.9109 43.5485 69.072 43.2494C69.2208 42.9703 69.4448 42.7384 69.7186 42.5801C69.9957 42.4212 70.3097 42.338 70.6292 42.3388C70.9488 42.3366 71.2631 42.42 71.5398 42.5801C71.8123 42.738 72.036 42.968 72.1863 43.2448C72.3446 43.5465 72.4244 43.8831 72.4185 44.2237V44.3785ZM69.7277 43.1128C69.4763 43.3508 69.3276 43.6775 69.3133 44.0234H71.945C71.9282 43.679 71.7818 43.3537 71.5352 43.1128C71.2882 42.884 70.9612 42.7613 70.6246 42.7713C70.2923 42.7625 69.97 42.8852 69.7277 43.1128Z" fill="#39373A"/>
<path d="M73.534 42.3669H74.0349V44.0151H76.366V42.3669H76.8668V46.0822H76.366V44.4431H74.0257V46.0822H73.5249L73.534 42.3669Z" fill="#39373A"/>
<path d="M80.9189 42.8128H79.5074V46.0819H79.0066V42.8128H77.6043V42.3575H80.9189V42.8128Z" fill="#39373A"/>
<path d="M81.6428 42.3669H82.1437V45.3219L84.6205 42.3669H85.0758V46.0822H84.5613V43.1319L82.089 46.0822H81.6337L81.6428 42.3669Z" fill="#39373A"/>
<path d="M89.5378 42.3664V46.0817H89.037V42.8126H87.2568L87.2067 43.7232C87.1965 44.3259 87.1061 44.9246 86.938 45.5034C86.9025 45.6778 86.8079 45.8346 86.6702 45.9474C86.5325 46.0602 86.3602 46.1221 86.1822 46.1226C86.0606 46.1194 85.9397 46.101 85.8226 46.068L85.859 45.6127C85.9172 45.6275 85.9766 45.6367 86.0365 45.64C86.131 45.6482 86.2256 45.6267 86.3072 45.5786C86.3888 45.5304 86.4533 45.458 86.4918 45.3714C86.5978 45.1639 86.6642 44.9385 86.6876 44.7067C86.7195 44.4471 86.7514 44.0966 86.7741 43.664L86.8379 42.3346L89.5378 42.3664Z" fill="#39373A"/>
<path d="M93.8178 42.3661V46.0813H93.3625V44.852H92.0558L91.1953 46.0813H90.6489L91.5595 44.7837C91.3002 44.7209 91.0674 44.5774 90.8948 44.3739C90.7347 44.1639 90.6526 43.9048 90.6626 43.6409C90.6515 43.4606 90.6843 43.2803 90.758 43.1154C90.8318 42.9505 90.9443 42.8059 91.086 42.6939C91.4233 42.4569 91.831 42.3413 92.2425 42.3661H93.8178ZM92.2334 44.4787H93.3579V42.8123H92.2698C91.5458 42.8123 91.1816 43.0945 91.1816 43.6546C91.1816 44.2146 91.5322 44.4787 92.2334 44.4787Z" fill="#39373A"/>
<path d="M99.1311 45.6444V47.0103H98.6758V46.077H95.2793V42.3617H95.7801V45.6399H98.0566V42.3617H98.5574V45.6399L99.1311 45.6444Z" fill="#39373A"/>
<path d="M100.074 42.3669H100.574V45.3219L103.051 42.3669H103.506V46.0822H103.006V43.1319L100.533 46.0822H100.078L100.074 42.3669Z" fill="#39373A"/>
<path d="M107.782 42.3668V46.082H107.326V44.8527H106.02L105.159 46.082H104.595L105.505 44.7844C105.248 44.7204 105.017 44.5771 104.845 44.3746C104.663 44.1212 104.581 43.8091 104.615 43.4987C104.65 43.1883 104.798 42.9018 105.032 42.6946C105.371 42.4589 105.78 42.3435 106.193 42.3668H107.782ZM106.197 44.4794H107.326V42.813H106.238C105.514 42.813 105.15 43.0952 105.15 43.6553C105.15 44.2153 105.505 44.4794 106.202 44.4794H106.197Z" fill="#39373A"/>
<path d="M114.393 42.3669V46.0822H113.892V42.8131H111.561V46.0822H111.06V42.3669H114.393Z" fill="#39373A"/>
<path d="M116.387 45.8726C116.103 45.7152 115.868 45.4819 115.708 45.1988C115.544 44.9003 115.458 44.5651 115.458 44.2244C115.458 43.8837 115.544 43.5486 115.708 43.2501C115.868 42.9683 116.103 42.7366 116.387 42.5808C116.685 42.4225 117.017 42.3398 117.354 42.3398C117.692 42.3398 118.024 42.4225 118.322 42.5808C118.605 42.7367 118.838 42.9685 118.996 43.2501C119.154 43.5505 119.237 43.8849 119.237 44.2244C119.237 44.564 119.154 44.8984 118.996 45.1988C118.838 45.4816 118.605 45.7149 118.322 45.8726C118.025 46.034 117.692 46.1185 117.354 46.1185C117.016 46.1185 116.684 46.034 116.387 45.8726ZM118.062 45.4947C118.272 45.3734 118.442 45.1949 118.554 44.9802C118.671 44.7454 118.732 44.4867 118.732 44.2244C118.732 43.9622 118.671 43.7035 118.554 43.4686C118.442 43.2553 118.271 43.0784 118.062 42.9587C117.845 42.8391 117.6 42.7764 117.352 42.7764C117.104 42.7764 116.859 42.8391 116.642 42.9587C116.433 43.0784 116.262 43.2553 116.15 43.4686C116.03 43.7025 115.968 43.9616 115.968 44.2244C115.968 44.4873 116.03 44.7463 116.15 44.9802C116.262 45.1949 116.432 45.3734 116.642 45.4947C116.86 45.6115 117.104 45.6726 117.352 45.6726C117.6 45.6726 117.844 45.6115 118.062 45.4947Z" fill="#39373A"/>
<path d="M120.312 42.3669H120.812V44.0151H123.148V42.3669H123.654V46.0822H123.148V44.4431H120.812V46.0822H120.312V42.3669Z" fill="#39373A"/>
<path d="M127.929 42.3668V46.082H127.474V44.8527H126.167L125.302 46.082H124.76L125.671 44.7844C125.412 44.7193 125.18 44.5762 125.006 44.3746C124.846 44.1646 124.764 43.9055 124.774 43.6416C124.763 43.4613 124.795 43.281 124.869 43.1161C124.943 42.9512 125.055 42.8066 125.197 42.6946C125.537 42.4589 125.945 42.3435 126.358 42.3668H127.929ZM126.349 44.4794H127.474V42.813H126.385C125.661 42.813 125.297 43.0952 125.297 43.6553C125.297 44.2153 125.648 44.4794 126.349 44.4794Z" fill="#39373A"/>
<path d="M131.972 42.8128H130.547V46.0819H130.046V42.8128H128.639V42.3575H131.954L131.972 42.8128Z" fill="#39373A"/>
<path d="M132.696 42.3669H133.197V44.0151H135.555V42.3669H136.056V46.0822H135.555V44.4431H133.215V46.0822H132.714L132.696 42.3669Z" fill="#39373A"/>
<path d="M139.858 42.7033C139.994 42.8457 140.1 43.0155 140.166 43.2015C140.233 43.3874 140.26 43.5854 140.245 43.7823V46.0816H139.789V45.517C139.673 45.7166 139.498 45.8756 139.288 45.9723C139.045 46.087 138.779 46.1432 138.51 46.1362C138.156 46.1542 137.807 46.0497 137.522 45.8403C137.403 45.7477 137.308 45.6287 137.244 45.4926C137.18 45.3566 137.149 45.2075 137.153 45.0572C137.147 44.9116 137.176 44.7666 137.236 44.6339C137.296 44.5011 137.386 44.3841 137.499 44.2923C137.818 44.0748 138.202 43.9735 138.587 44.0054H139.767V43.7778C139.776 43.6436 139.757 43.5088 139.711 43.3825C139.665 43.2561 139.592 43.141 139.498 43.0448C139.278 42.8646 138.998 42.7751 138.715 42.7943C138.484 42.7944 138.254 42.8345 138.036 42.9127C137.834 42.9848 137.645 43.0927 137.481 43.2314L137.253 42.8581C137.453 42.6919 137.684 42.5666 137.932 42.4893C138.192 42.3943 138.465 42.3405 138.742 42.3299C139.148 42.3062 139.548 42.4399 139.858 42.7033ZM139.293 45.5261C139.5 45.3926 139.66 45.1964 139.748 44.9661V44.3606H138.583C137.95 44.3606 137.631 44.5791 137.631 45.0253C137.628 45.1239 137.648 45.2219 137.691 45.3108C137.734 45.3997 137.798 45.4767 137.877 45.5353C138.082 45.6704 138.324 45.7359 138.569 45.7219C138.825 45.7258 139.077 45.6546 139.293 45.517V45.5261Z" fill="#39373A"/>
<path d="M144.433 42.3666V46.0819H143.978V44.8526H142.671L141.811 46.0819H141.269L142.18 44.7843C141.921 44.7203 141.688 44.577 141.515 44.3745C141.355 44.1645 141.273 43.9053 141.283 43.6415C141.272 43.4612 141.305 43.2809 141.378 43.116C141.452 42.9511 141.565 42.8064 141.706 42.6944C142.044 42.4594 142.451 42.344 142.863 42.3666H144.433ZM142.84 44.4792H143.96V42.8128H142.885C142.162 42.8128 141.802 43.0951 141.802 43.6551C141.802 44.2151 142.152 44.4792 142.84 44.4792Z" fill="#39373A"/>
<path d="M149.059 44.4295H148.212V46.0822H147.711V42.3669H148.212V44.0015H149.064L150.37 42.3669H150.917L149.455 44.1882L151.021 46.1004H150.43L149.059 44.4295Z" fill="#39373A"/>
<path d="M154.136 42.7037C154.273 42.8462 154.378 43.016 154.445 43.2019C154.511 43.3879 154.538 43.5858 154.523 43.7828V46.0821H154.068V45.5175C153.952 45.7158 153.779 45.8746 153.571 45.9728C153.326 46.0869 153.058 46.143 152.788 46.1367C152.435 46.1546 152.086 46.0501 151.8 45.8407C151.682 45.7482 151.587 45.6291 151.523 45.4931C151.459 45.3571 151.427 45.2079 151.432 45.0576C151.426 44.912 151.454 44.7671 151.514 44.6343C151.574 44.5015 151.664 44.3846 151.778 44.2927C152.097 44.0752 152.481 43.9739 152.866 44.0059H154.045V43.7782C154.055 43.644 154.036 43.5093 153.989 43.3829C153.943 43.2565 153.87 43.1414 153.776 43.0452C153.557 42.8651 153.277 42.7755 152.993 42.7948C152.762 42.7949 152.532 42.8349 152.315 42.9132C152.112 42.9852 151.924 43.0932 151.759 43.2319L151.532 42.8585C151.732 42.6924 151.962 42.5671 152.21 42.4897C152.479 42.4017 152.76 42.3571 153.043 42.3577C153.438 42.3322 153.828 42.4557 154.136 42.7037ZM153.571 45.5266C153.78 45.3945 153.94 45.1979 154.027 44.9666V44.361H152.857C152.224 44.361 151.905 44.5796 151.905 45.0258C151.901 45.1244 151.922 45.2224 151.965 45.3112C152.008 45.4001 152.071 45.4772 152.151 45.5357C152.355 45.6708 152.598 45.7363 152.843 45.7224C153.101 45.7277 153.354 45.6564 153.571 45.5175V45.5266Z" fill="#39373A"/>
<path d="M159.117 44.4288H158.32V46.0816H157.819V44.4288H157.013L155.875 46.0816H155.274L156.608 44.1693L155.379 42.3481H155.925L157.013 43.9827H157.819V42.3481H158.32V43.9827H159.126L160.219 42.3481H160.761L159.536 44.1693L160.87 46.077H160.269L159.117 44.4288Z" fill="#39373A"/>
<path d="M165.313 45.6451V46.9791H164.858V46.0685H161.507V46.9791H161.052V45.6451H161.261C161.512 45.6451 161.68 45.4493 161.771 45.0942C161.879 44.6064 161.94 44.1093 161.953 43.6099L162.003 42.3669H164.735V45.6451H165.313ZM162.272 44.944C162.242 45.2129 162.116 45.462 161.917 45.6451H164.239V42.8131H162.454L162.409 43.6418C162.393 44.0785 162.347 44.5135 162.272 44.944Z" fill="#39373A"/>
<path d="M166.852 45.8726C166.569 45.7139 166.335 45.4809 166.174 45.1988C166.013 44.8994 165.928 44.5646 165.928 44.2244C165.928 43.8843 166.013 43.5495 166.174 43.2501C166.335 42.9693 166.57 42.7379 166.852 42.5808C167.15 42.4225 167.483 42.3398 167.82 42.3398C168.157 42.3398 168.489 42.4225 168.787 42.5808C169.071 42.7355 169.305 42.9676 169.461 43.2501C169.623 43.5495 169.707 43.8843 169.707 44.2244C169.707 44.5646 169.623 44.8994 169.461 45.1988C169.305 45.4826 169.071 45.7163 168.787 45.8726C168.49 46.034 168.158 46.1185 167.82 46.1185C167.482 46.1185 167.149 46.034 166.852 45.8726ZM168.532 45.4947C168.742 45.3734 168.912 45.1949 169.024 44.9802C169.138 44.7445 169.197 44.4861 169.197 44.2244C169.197 43.9627 169.138 43.7043 169.024 43.4686C168.912 43.2553 168.742 43.0784 168.532 42.9587C168.315 42.8391 168.071 42.7764 167.822 42.7764C167.574 42.7764 167.33 42.8391 167.112 42.9587C166.903 43.0795 166.731 43.256 166.616 43.4686C166.499 43.7035 166.438 43.9622 166.438 44.2244C166.438 44.4867 166.499 44.7454 166.616 44.9802C166.73 45.1942 166.902 45.3723 167.112 45.4947C167.331 45.6111 167.574 45.672 167.822 45.672C168.07 45.672 168.314 45.6111 168.532 45.4947Z" fill="#39373A"/>
<path d="M174.934 42.3669V46.0822H174.479V43.1455L172.972 45.6315H172.749L171.246 43.1364V46.0822H170.791V42.3669H171.296L172.872 45.0441L174.474 42.3669H174.934Z" fill="#39373A"/>
<path d="M179.514 42.3666L177.657 46.5281C177.549 46.8152 177.37 47.0705 177.138 47.2702C176.929 47.4187 176.679 47.4954 176.423 47.4888C176.252 47.4908 176.082 47.4615 175.922 47.4023C175.769 47.3488 175.631 47.2617 175.517 47.1473L175.754 46.774C175.84 46.865 175.945 46.9371 176.061 46.9856C176.177 47.0342 176.302 47.0583 176.427 47.0563C176.591 47.0658 176.753 47.0157 176.883 46.9151C177.028 46.7819 177.143 46.6188 177.22 46.437L177.379 46.0774L175.722 42.3666H176.245L177.625 45.5173L179.023 42.3575L179.514 42.3666Z" fill="#39373A"/>
</svg>
